#VRML V2.0 utf8
# Simplified dimension envelope; model units = 2.54 mm.
Transform { translation 0.0 0.0 0.14763779527559054 children [ Shape { appearance Appearance { material Material { diffuseColor 0.68 0.7 0.72 } } geometry Box { size 0.7874015748031495 0.7874015748031495 0.2952755905511811 } } ] }
Shape { appearance Appearance { material Material { diffuseColor 0.05 0.05 0.05 } } geometry IndexedFaceSet { solid FALSE coord Coordinate { point [ 0.212598 0.157480 0.295276, 0.210720 0.171746 0.295276, 0.205214 0.185039 0.295276, 0.196455 0.196455 0.295276, 0.185039 0.205214 0.295276, 0.171746 0.210720 0.295276, 0.157480 0.212598 0.295276, 0.143215 0.210720 0.295276, 0.129921 0.205214 0.295276, 0.118506 0.196455 0.295276, 0.109747 0.185039 0.295276, 0.104240 0.171746 0.295276, 0.102362 0.157480 0.295276, 0.104240 0.143215 0.295276, 0.109747 0.129921 0.295276, 0.118506 0.118506 0.295276, 0.129921 0.109747 0.295276, 0.143215 0.104240 0.295276, 0.157480 0.102362 0.295276, 0.171746 0.104240 0.295276, 0.185039 0.109747 0.295276, 0.196455 0.118506 0.295276, 0.205214 0.129921 0.295276, 0.210720 0.143215 0.295276, 0.212598 0.157480 0.307087, 0.210720 0.171746 0.307087, 0.205214 0.185039 0.307087, 0.196455 0.196455 0.307087, 0.185039 0.205214 0.307087, 0.171746 0.210720 0.307087, 0.157480 0.212598 0.307087, 0.143215 0.210720 0.307087, 0.129921 0.205214 0.307087, 0.118506 0.196455 0.307087, 0.109747 0.185039 0.307087, 0.104240 0.171746 0.307087, 0.102362 0.157480 0.307087, 0.104240 0.143215 0.307087, 0.109747 0.129921 0.307087, 0.118506 0.118506 0.307087, 0.129921 0.109747 0.307087, 0.143215 0.104240 0.307087, 0.157480 0.102362 0.307087, 0.171746 0.104240 0.307087, 0.185039 0.109747 0.307087, 0.196455 0.118506 0.307087, 0.205214 0.129921 0.307087, 0.210720 0.143215 0.307087 ] } coordIndex [ 23 22 21 20 19 18 17 16 15 14 13 12 11 10 9 8 7 6 5 4 3 2 1 0, -1, 24 25 26 27 28 29 30 31 32 33 34 35 36 37 38 39 40 41 42 43 44 45 46 47, -1, 0 1 25 24, -1, 1 2 26 25, -1, 2 3 27 26, -1, 3 4 28 27, -1, 4 5 29 28, -1, 5 6 30 29, -1, 6 7 31 30, -1, 7 8 32 31, -1, 8 9 33 32, -1, 9 10 34 33, -1, 10 11 35 34, -1, 11 12 36 35, -1, 12 13 37 36, -1, 13 14 38 37, -1, 14 15 39 38, -1, 15 16 40 39, -1, 16 17 41 40, -1, 17 18 42 41, -1, 18 19 43 42, -1, 19 20 44 43, -1, 20 21 45 44, -1, 21 22 46 45, -1, 22 23 47 46, -1, 23 0 24 47, -1 ] } }
