#VRML V2.0 utf8
# Simplified dimension envelope; model units = 2.54 mm.
Transform { translation 0.0 0.0 0.31496062992125984 children [ Shape { appearance Appearance { material Material { diffuseColor 0.55 0.57 0.59 } } geometry Box { size 2.3622047244094486 2.3622047244094486 0.6299212598425197 } } ] }
Shape { appearance Appearance { material Material { diffuseColor 0.13 0.13 0.14 } } geometry IndexedFaceSet { solid FALSE coord Coordinate { point [ 0.551181 0.000000 0.629921, 0.540590 0.107530 0.629921, 0.509225 0.210928 0.629921, 0.458290 0.306220 0.629921, 0.389744 0.389744 0.629921, 0.306220 0.458290 0.629921, 0.210928 0.509225 0.629921, 0.107530 0.540590 0.629921, 0.000000 0.551181 0.629921, -0.107530 0.540590 0.629921, -0.210928 0.509225 0.629921, -0.306220 0.458290 0.629921, -0.389744 0.389744 0.629921, -0.458290 0.306220 0.629921, -0.509225 0.210928 0.629921, -0.540590 0.107530 0.629921, -0.551181 0.000000 0.629921, -0.540590 -0.107530 0.629921, -0.509225 -0.210928 0.629921, -0.458290 -0.306220 0.629921, -0.389744 -0.389744 0.629921, -0.306220 -0.458290 0.629921, -0.210928 -0.509225 0.629921, -0.107530 -0.540590 0.629921, -0.000000 -0.551181 0.629921, 0.107530 -0.540590 0.629921, 0.210928 -0.509225 0.629921, 0.306220 -0.458290 0.629921, 0.389744 -0.389744 0.629921, 0.458290 -0.306220 0.629921, 0.509225 -0.210928 0.629921, 0.540590 -0.107530 0.629921, 0.551181 0.000000 1.023622, 0.540590 0.107530 1.023622, 0.509225 0.210928 1.023622, 0.458290 0.306220 1.023622, 0.389744 0.389744 1.023622, 0.306220 0.458290 1.023622, 0.210928 0.509225 1.023622, 0.107530 0.540590 1.023622, 0.000000 0.551181 1.023622, -0.107530 0.540590 1.023622, -0.210928 0.509225 1.023622, -0.306220 0.458290 1.023622, -0.389744 0.389744 1.023622, -0.458290 0.306220 1.023622, -0.509225 0.210928 1.023622, -0.540590 0.107530 1.023622, -0.551181 0.000000 1.023622, -0.540590 -0.107530 1.023622, -0.509225 -0.210928 1.023622, -0.458290 -0.306220 1.023622, -0.389744 -0.389744 1.023622, -0.306220 -0.458290 1.023622, -0.210928 -0.509225 1.023622, -0.107530 -0.540590 1.023622, -0.000000 -0.551181 1.023622, 0.107530 -0.540590 1.023622, 0.210928 -0.509225 1.023622, 0.306220 -0.458290 1.023622, 0.389744 -0.389744 1.023622, 0.458290 -0.306220 1.023622, 0.509225 -0.210928 1.023622, 0.540590 -0.107530 1.023622 ] } coordIndex [ 31 30 29 28 27 26 25 24 23 22 21 20 19 18 17 16 15 14 13 12 11 10 9 8 7 6 5 4 3 2 1 0, -1, 32 33 34 35 36 37 38 39 40 41 42 43 44 45 46 47 48 49 50 51 52 53 54 55 56 57 58 59 60 61 62 63, -1, 0 1 33 32, -1, 1 2 34 33, -1, 2 3 35 34, -1, 3 4 36 35, -1, 4 5 37 36, -1, 5 6 38 37, -1, 6 7 39 38, -1, 7 8 40 39, -1, 8 9 41 40, -1, 9 10 42 41, -1, 10 11 43 42, -1, 11 12 44 43, -1, 12 13 45 44, -1, 13 14 46 45, -1, 14 15 47 46, -1, 15 16 48 47, -1, 16 17 49 48, -1, 17 18 50 49, -1, 18 19 51 50, -1, 19 20 52 51, -1, 20 21 53 52, -1, 21 22 54 53, -1, 22 23 55 54, -1, 23 24 56 55, -1, 24 25 57 56, -1, 25 26 58 57, -1, 26 27 59 58, -1, 27 28 60 59, -1, 28 29 61 60, -1, 29 30 62 61, -1, 30 31 63 62, -1, 31 0 32 63, -1 ] } }
