#VRML V2.0 utf8
# Simplified dimension envelope; model units = 2.54 mm.
Transform { translation 0.0 0.0 0.15748031496062992 children [ Shape { appearance Appearance { material Material { diffuseColor 0.60 0.42 0.23 } } geometry Box { size 0.4724409448818898 0.31496062992125984 0.31496062992125984 } } ] }
Transform { translation -0.2755905511811024 0.0 0.15748031496062992 children [ Shape { appearance Appearance { material Material { diffuseColor 0.72 0.73 0.75 } } geometry Box { size 0.07874015748031496 0.31496062992125984 0.31496062992125984 } } ] }
Transform { translation 0.2755905511811024 0.0 0.15748031496062992 children [ Shape { appearance Appearance { material Material { diffuseColor 0.72 0.73 0.75 } } geometry Box { size 0.07874015748031496 0.31496062992125984 0.31496062992125984 } } ] }
