#VRML V2.0 utf8
# Simplified dimension envelope; model units = 2.54 mm.
Transform { translation 0.25 -1.0 0.5 children [ Shape { appearance Appearance { material Material { diffuseColor 0.055 0.055 0.06 } } geometry Box { size 1.3503937007874016 2.5 1.0 } } ] }
Transform { translation 0.0 0.0 0.7874015748031495 children [ Shape { appearance Appearance { material Material { diffuseColor 0.7 0.55 0.22 } } geometry Box { size 0.16141732283464566 0.16141732283464566 2.7559055118110236 } } ] }
Transform { translation 0.5 0.0 0.7874015748031495 children [ Shape { appearance Appearance { material Material { diffuseColor 0.7 0.55 0.22 } } geometry Box { size 0.16141732283464566 0.16141732283464566 2.7559055118110236 } } ] }
Transform { translation 0.0 -0.5 0.7874015748031495 children [ Shape { appearance Appearance { material Material { diffuseColor 0.7 0.55 0.22 } } geometry Box { size 0.16141732283464566 0.16141732283464566 2.7559055118110236 } } ] }
Transform { translation 0.5 -0.5 0.7874015748031495 children [ Shape { appearance Appearance { material Material { diffuseColor 0.7 0.55 0.22 } } geometry Box { size 0.16141732283464566 0.16141732283464566 2.7559055118110236 } } ] }
Transform { translation 0.0 -1.0 0.7874015748031495 children [ Shape { appearance Appearance { material Material { diffuseColor 0.7 0.55 0.22 } } geometry Box { size 0.16141732283464566 0.16141732283464566 2.7559055118110236 } } ] }
Transform { translation 0.5 -1.0 0.7874015748031495 children [ Shape { appearance Appearance { material Material { diffuseColor 0.7 0.55 0.22 } } geometry Box { size 0.16141732283464566 0.16141732283464566 2.7559055118110236 } } ] }
Transform { translation 0.0 -1.5 0.7874015748031495 children [ Shape { appearance Appearance { material Material { diffuseColor 0.7 0.55 0.22 } } geometry Box { size 0.16141732283464566 0.16141732283464566 2.7559055118110236 } } ] }
Transform { translation 0.5 -1.5 0.7874015748031495 children [ Shape { appearance Appearance { material Material { diffuseColor 0.7 0.55 0.22 } } geometry Box { size 0.16141732283464566 0.16141732283464566 2.7559055118110236 } } ] }
Transform { translation 0.0 -2.0 0.7874015748031495 children [ Shape { appearance Appearance { material Material { diffuseColor 0.7 0.55 0.22 } } geometry Box { size 0.16141732283464566 0.16141732283464566 2.7559055118110236 } } ] }
Transform { translation 0.5 -2.0 0.7874015748031495 children [ Shape { appearance Appearance { material Material { diffuseColor 0.7 0.55 0.22 } } geometry Box { size 0.16141732283464566 0.16141732283464566 2.7559055118110236 } } ] }
