#VRML V2.0 utf8
# Simplified dimension envelope; model units = 2.54 mm.
Shape { appearance Appearance { material Material { diffuseColor 0.83 0.86 0.89 } } geometry IndexedFaceSet { solid FALSE coord Coordinate { point [ 6.200787 0.000000 1.921260, 6.187511 0.405551 1.921260, 6.147739 0.809365 1.921260, 6.081641 1.209714 1.921260, 5.989501 1.604882 1.921260, 5.871712 1.993178 1.921260, 5.728781 2.372939 1.921260, 5.561317 2.742538 1.921260, 5.370039 3.100394 1.921260, 5.155766 3.444973 1.921260, 4.919415 3.774800 1.921260, 4.661999 4.088463 1.921260, 4.384619 4.384619 1.921260, 4.088463 4.661999 1.921260, 3.774800 4.919415 1.921260, 3.444973 5.155766 1.921260, 3.100394 5.370039 1.921260, 2.742538 5.561317 1.921260, 2.372939 5.728781 1.921260, 1.993178 5.871712 1.921260, 1.604882 5.989501 1.921260, 1.209714 6.081641 1.921260, 0.809365 6.147739 1.921260, 0.405551 6.187511 1.921260, 0.000000 6.200787 1.921260, -0.405551 6.187511 1.921260, -0.809365 6.147739 1.921260, -1.209714 6.081641 1.921260, -1.604882 5.989501 1.921260, -1.993178 5.871712 1.921260, -2.372939 5.728781 1.921260, -2.742538 5.561317 1.921260, -3.100394 5.370039 1.921260, -3.444973 5.155766 1.921260, -3.774800 4.919415 1.921260, -4.088463 4.661999 1.921260, -4.384619 4.384619 1.921260, -4.661999 4.088463 1.921260, -4.919415 3.774800 1.921260, -5.155766 3.444973 1.921260, -5.370039 3.100394 1.921260, -5.561317 2.742538 1.921260, -5.728781 2.372939 1.921260, -5.871712 1.993178 1.921260, -5.989501 1.604882 1.921260, -6.081641 1.209714 1.921260, -6.147739 0.809365 1.921260, -6.187511 0.405551 1.921260, -6.200787 0.000000 1.921260, -6.187511 -0.405551 1.921260, -6.147739 -0.809365 1.921260, -6.081641 -1.209714 1.921260, -5.989501 -1.604882 1.921260, -5.871712 -1.993178 1.921260, -5.728781 -2.372939 1.921260, -5.561317 -2.742538 1.921260, -5.370039 -3.100394 1.921260, -5.155766 -3.444973 1.921260, -4.919415 -3.774800 1.921260, -4.661999 -4.088463 1.921260, -4.384619 -4.384619 1.921260, -4.088463 -4.661999 1.921260, -3.774800 -4.919415 1.921260, -3.444973 -5.155766 1.921260, -3.100394 -5.370039 1.921260, -2.742538 -5.561317 1.921260, -2.372939 -5.728781 1.921260, -1.993178 -5.871712 1.921260, -1.604882 -5.989501 1.921260, -1.209714 -6.081641 1.921260, -0.809365 -6.147739 1.921260, -0.405551 -6.187511 1.921260, -0.000000 -6.200787 1.921260, 0.405551 -6.187511 1.921260, 0.809365 -6.147739 1.921260, 1.209714 -6.081641 1.921260, 1.604882 -5.989501 1.921260, 1.993178 -5.871712 1.921260, 2.372939 -5.728781 1.921260, 2.742538 -5.561317 1.921260, 3.100394 -5.370039 1.921260, 3.444973 -5.155766 1.921260, 3.774800 -4.919415 1.921260, 4.088463 -4.661999 1.921260, 4.384619 -4.384619 1.921260, 4.661999 -4.088463 1.921260, 4.919415 -3.774800 1.921260, 5.155766 -3.444973 1.921260, 5.370039 -3.100394 1.921260, 5.561317 -2.742538 1.921260, 5.728781 -2.372939 1.921260, 5.871712 -1.993178 1.921260, 5.989501 -1.604882 1.921260, 6.081641 -1.209714 1.921260, 6.147739 -0.809365 1.921260, 6.187511 -0.405551 1.921260, 6.200787 0.000000 7.944882, 6.187511 0.405551 7.944882, 6.147739 0.809365 7.944882, 6.081641 1.209714 7.944882, 5.989501 1.604882 7.944882, 5.871712 1.993178 7.944882, 5.728781 2.372939 7.944882, 5.561317 2.742538 7.944882, 5.370039 3.100394 7.944882, 5.155766 3.444973 7.944882, 4.919415 3.774800 7.944882, 4.661999 4.088463 7.944882, 4.384619 4.384619 7.944882, 4.088463 4.661999 7.944882, 3.774800 4.919415 7.944882, 3.444973 5.155766 7.944882, 3.100394 5.370039 7.944882, 2.742538 5.561317 7.944882, 2.372939 5.728781 7.944882, 1.993178 5.871712 7.944882, 1.604882 5.989501 7.944882, 1.209714 6.081641 7.944882, 0.809365 6.147739 7.944882, 0.405551 6.187511 7.944882, 0.000000 6.200787 7.944882, -0.405551 6.187511 7.944882, -0.809365 6.147739 7.944882, -1.209714 6.081641 7.944882, -1.604882 5.989501 7.944882, -1.993178 5.871712 7.944882, -2.372939 5.728781 7.944882, -2.742538 5.561317 7.944882, -3.100394 5.370039 7.944882, -3.444973 5.155766 7.944882, -3.774800 4.919415 7.944882, -4.088463 4.661999 7.944882, -4.384619 4.384619 7.944882, -4.661999 4.088463 7.944882, -4.919415 3.774800 7.944882, -5.155766 3.444973 7.944882, -5.370039 3.100394 7.944882, -5.561317 2.742538 7.944882, -5.728781 2.372939 7.944882, -5.871712 1.993178 7.944882, -5.989501 1.604882 7.944882, -6.081641 1.209714 7.944882, -6.147739 0.809365 7.944882, -6.187511 0.405551 7.944882, -6.200787 0.000000 7.944882, -6.187511 -0.405551 7.944882, -6.147739 -0.809365 7.944882, -6.081641 -1.209714 7.944882, -5.989501 -1.604882 7.944882, -5.871712 -1.993178 7.944882, -5.728781 -2.372939 7.944882, -5.561317 -2.742538 7.944882, -5.370039 -3.100394 7.944882, -5.155766 -3.444973 7.944882, -4.919415 -3.774800 7.944882, -4.661999 -4.088463 7.944882, -4.384619 -4.384619 7.944882, -4.088463 -4.661999 7.944882, -3.774800 -4.919415 7.944882, -3.444973 -5.155766 7.944882, -3.100394 -5.370039 7.944882, -2.742538 -5.561317 7.944882, -2.372939 -5.728781 7.944882, -1.993178 -5.871712 7.944882, -1.604882 -5.989501 7.944882, -1.209714 -6.081641 7.944882, -0.809365 -6.147739 7.944882, -0.405551 -6.187511 7.944882, -0.000000 -6.200787 7.944882, 0.405551 -6.187511 7.944882, 0.809365 -6.147739 7.944882, 1.209714 -6.081641 7.944882, 1.604882 -5.989501 7.944882, 1.993178 -5.871712 7.944882, 2.372939 -5.728781 7.944882, 2.742538 -5.561317 7.944882, 3.100394 -5.370039 7.944882, 3.444973 -5.155766 7.944882, 3.774800 -4.919415 7.944882, 4.088463 -4.661999 7.944882, 4.384619 -4.384619 7.944882, 4.661999 -4.088463 7.944882, 4.919415 -3.774800 7.944882, 5.155766 -3.444973 7.944882, 5.370039 -3.100394 7.944882, 5.561317 -2.742538 7.944882, 5.728781 -2.372939 7.944882, 5.871712 -1.993178 7.944882, 5.989501 -1.604882 7.944882, 6.081641 -1.209714 7.944882, 6.147739 -0.809365 7.944882, 6.187511 -0.405551 7.944882 ] } coordIndex [ 95 94 93 92 91 90 89 88 87 86 85 84 83 82 81 80 79 78 77 76 75 74 73 72 71 70 69 68 67 66 65 64 63 62 61 60 59 58 57 56 55 54 53 52 51 50 49 48 47 46 45 44 43 42 41 40 39 38 37 36 35 34 33 32 31 30 29 28 27 26 25 24 23 22 21 20 19 18 17 16 15 14 13 12 11 10 9 8 7 6 5 4 3 2 1 0, -1, 96 97 98 99 100 101 102 103 104 105 106 107 108 109 110 111 112 113 114 115 116 117 118 119 120 121 122 123 124 125 126 127 128 129 130 131 132 133 134 135 136 137 138 139 140 141 142 143 144 145 146 147 148 149 150 151 152 153 154 155 156 157 158 159 160 161 162 163 164 165 166 167 168 169 170 171 172 173 174 175 176 177 178 179 180 181 182 183 184 185 186 187 188 189 190 191, -1, 0 1 97 96, -1, 1 2 98 97, -1, 2 3 99 98, -1, 3 4 100 99, -1, 4 5 101 100, -1, 5 6 102 101, -1, 6 7 103 102, -1, 7 8 104 103, -1, 8 9 105 104, -1, 9 10 106 105, -1, 10 11 107 106, -1, 11 12 108 107, -1, 12 13 109 108, -1, 13 14 110 109, -1, 14 15 111 110, -1, 15 16 112 111, -1, 16 17 113 112, -1, 17 18 114 113, -1, 18 19 115 114, -1, 19 20 116 115, -1, 20 21 117 116, -1, 21 22 118 117, -1, 22 23 119 118, -1, 23 24 120 119, -1, 24 25 121 120, -1, 25 26 122 121, -1, 26 27 123 122, -1, 27 28 124 123, -1, 28 29 125 124, -1, 29 30 126 125, -1, 30 31 127 126, -1, 31 32 128 127, -1, 32 33 129 128, -1, 33 34 130 129, -1, 34 35 131 130, -1, 35 36 132 131, -1, 36 37 133 132, -1, 37 38 134 133, -1, 38 39 135 134, -1, 39 40 136 135, -1, 40 41 137 136, -1, 41 42 138 137, -1, 42 43 139 138, -1, 43 44 140 139, -1, 44 45 141 140, -1, 45 46 142 141, -1, 46 47 143 142, -1, 47 48 144 143, -1, 48 49 145 144, -1, 49 50 146 145, -1, 50 51 147 146, -1, 51 52 148 147, -1, 52 53 149 148, -1, 53 54 150 149, -1, 54 55 151 150, -1, 55 56 152 151, -1, 56 57 153 152, -1, 57 58 154 153, -1, 58 59 155 154, -1, 59 60 156 155, -1, 60 61 157 156, -1, 61 62 158 157, -1, 62 63 159 158, -1, 63 64 160 159, -1, 64 65 161 160, -1, 65 66 162 161, -1, 66 67 163 162, -1, 67 68 164 163, -1, 68 69 165 164, -1, 69 70 166 165, -1, 70 71 167 166, -1, 71 72 168 167, -1, 72 73 169 168, -1, 73 74 170 169, -1, 74 75 171 170, -1, 75 76 172 171, -1, 76 77 173 172, -1, 77 78 174 173, -1, 78 79 175 174, -1, 79 80 176 175, -1, 80 81 177 176, -1, 81 82 178 177, -1, 82 83 179 178, -1, 83 84 180 179, -1, 84 85 181 180, -1, 85 86 182 181, -1, 86 87 183 182, -1, 87 88 184 183, -1, 88 89 185 184, -1, 89 90 186 185, -1, 90 91 187 186, -1, 91 92 188 187, -1, 92 93 189 188, -1, 93 94 190 189, -1, 94 95 191 190, -1, 95 0 96 191, -1 ] } }
Shape { appearance Appearance { material Material { diffuseColor 0.23 0.25 0.27 } } geometry IndexedFaceSet { solid FALSE coord Coordinate { point [ 5.314961 0.000000 7.952756, 5.303581 0.347615 7.952756, 5.269490 0.693742 7.952756, 5.212835 1.036897 7.952756, 5.133858 1.375613 7.952756, 5.032896 1.708438 7.952756, 4.910383 2.033947 7.952756, 4.766843 2.350747 7.952756, 4.602891 2.657480 7.952756, 4.419228 2.952834 7.952756, 4.216642 3.235543 7.952756, 3.995999 3.504397 7.952756, 3.758245 3.758245 7.952756, 3.504397 3.995999 7.952756, 3.235543 4.216642 7.952756, 2.952834 4.419228 7.952756, 2.657480 4.602891 7.952756, 2.350747 4.766843 7.952756, 2.033947 4.910383 7.952756, 1.708438 5.032896 7.952756, 1.375613 5.133858 7.952756, 1.036897 5.212835 7.952756, 0.693742 5.269490 7.952756, 0.347615 5.303581 7.952756, 0.000000 5.314961 7.952756, -0.347615 5.303581 7.952756, -0.693742 5.269490 7.952756, -1.036897 5.212835 7.952756, -1.375613 5.133858 7.952756, -1.708438 5.032896 7.952756, -2.033947 4.910383 7.952756, -2.350747 4.766843 7.952756, -2.657480 4.602891 7.952756, -2.952834 4.419228 7.952756, -3.235543 4.216642 7.952756, -3.504397 3.995999 7.952756, -3.758245 3.758245 7.952756, -3.995999 3.504397 7.952756, -4.216642 3.235543 7.952756, -4.419228 2.952834 7.952756, -4.602891 2.657480 7.952756, -4.766843 2.350747 7.952756, -4.910383 2.033947 7.952756, -5.032896 1.708438 7.952756, -5.133858 1.375613 7.952756, -5.212835 1.036897 7.952756, -5.269490 0.693742 7.952756, -5.303581 0.347615 7.952756, -5.314961 0.000000 7.952756, -5.303581 -0.347615 7.952756, -5.269490 -0.693742 7.952756, -5.212835 -1.036897 7.952756, -5.133858 -1.375613 7.952756, -5.032896 -1.708438 7.952756, -4.910383 -2.033947 7.952756, -4.766843 -2.350747 7.952756, -4.602891 -2.657480 7.952756, -4.419228 -2.952834 7.952756, -4.216642 -3.235543 7.952756, -3.995999 -3.504397 7.952756, -3.758245 -3.758245 7.952756, -3.504397 -3.995999 7.952756, -3.235543 -4.216642 7.952756, -2.952834 -4.419228 7.952756, -2.657480 -4.602891 7.952756, -2.350747 -4.766843 7.952756, -2.033947 -4.910383 7.952756, -1.708438 -5.032896 7.952756, -1.375613 -5.133858 7.952756, -1.036897 -5.212835 7.952756, -0.693742 -5.269490 7.952756, -0.347615 -5.303581 7.952756, -0.000000 -5.314961 7.952756, 0.347615 -5.303581 7.952756, 0.693742 -5.269490 7.952756, 1.036897 -5.212835 7.952756, 1.375613 -5.133858 7.952756, 1.708438 -5.032896 7.952756, 2.033947 -4.910383 7.952756, 2.350747 -4.766843 7.952756, 2.657480 -4.602891 7.952756, 2.952834 -4.419228 7.952756, 3.235543 -4.216642 7.952756, 3.504397 -3.995999 7.952756, 3.758245 -3.758245 7.952756, 3.995999 -3.504397 7.952756, 4.216642 -3.235543 7.952756, 4.419228 -2.952834 7.952756, 4.602891 -2.657480 7.952756, 4.766843 -2.350747 7.952756, 4.910383 -2.033947 7.952756, 5.032896 -1.708438 7.952756, 5.133858 -1.375613 7.952756, 5.212835 -1.036897 7.952756, 5.269490 -0.693742 7.952756, 5.303581 -0.347615 7.952756, 5.314961 0.000000 7.984252, 5.303581 0.347615 7.984252, 5.269490 0.693742 7.984252, 5.212835 1.036897 7.984252, 5.133858 1.375613 7.984252, 5.032896 1.708438 7.984252, 4.910383 2.033947 7.984252, 4.766843 2.350747 7.984252, 4.602891 2.657480 7.984252, 4.419228 2.952834 7.984252, 4.216642 3.235543 7.984252, 3.995999 3.504397 7.984252, 3.758245 3.758245 7.984252, 3.504397 3.995999 7.984252, 3.235543 4.216642 7.984252, 2.952834 4.419228 7.984252, 2.657480 4.602891 7.984252, 2.350747 4.766843 7.984252, 2.033947 4.910383 7.984252, 1.708438 5.032896 7.984252, 1.375613 5.133858 7.984252, 1.036897 5.212835 7.984252, 0.693742 5.269490 7.984252, 0.347615 5.303581 7.984252, 0.000000 5.314961 7.984252, -0.347615 5.303581 7.984252, -0.693742 5.269490 7.984252, -1.036897 5.212835 7.984252, -1.375613 5.133858 7.984252, -1.708438 5.032896 7.984252, -2.033947 4.910383 7.984252, -2.350747 4.766843 7.984252, -2.657480 4.602891 7.984252, -2.952834 4.419228 7.984252, -3.235543 4.216642 7.984252, -3.504397 3.995999 7.984252, -3.758245 3.758245 7.984252, -3.995999 3.504397 7.984252, -4.216642 3.235543 7.984252, -4.419228 2.952834 7.984252, -4.602891 2.657480 7.984252, -4.766843 2.350747 7.984252, -4.910383 2.033947 7.984252, -5.032896 1.708438 7.984252, -5.133858 1.375613 7.984252, -5.212835 1.036897 7.984252, -5.269490 0.693742 7.984252, -5.303581 0.347615 7.984252, -5.314961 0.000000 7.984252, -5.303581 -0.347615 7.984252, -5.269490 -0.693742 7.984252, -5.212835 -1.036897 7.984252, -5.133858 -1.375613 7.984252, -5.032896 -1.708438 7.984252, -4.910383 -2.033947 7.984252, -4.766843 -2.350747 7.984252, -4.602891 -2.657480 7.984252, -4.419228 -2.952834 7.984252, -4.216642 -3.235543 7.984252, -3.995999 -3.504397 7.984252, -3.758245 -3.758245 7.984252, -3.504397 -3.995999 7.984252, -3.235543 -4.216642 7.984252, -2.952834 -4.419228 7.984252, -2.657480 -4.602891 7.984252, -2.350747 -4.766843 7.984252, -2.033947 -4.910383 7.984252, -1.708438 -5.032896 7.984252, -1.375613 -5.133858 7.984252, -1.036897 -5.212835 7.984252, -0.693742 -5.269490 7.984252, -0.347615 -5.303581 7.984252, -0.000000 -5.314961 7.984252, 0.347615 -5.303581 7.984252, 0.693742 -5.269490 7.984252, 1.036897 -5.212835 7.984252, 1.375613 -5.133858 7.984252, 1.708438 -5.032896 7.984252, 2.033947 -4.910383 7.984252, 2.350747 -4.766843 7.984252, 2.657480 -4.602891 7.984252, 2.952834 -4.419228 7.984252, 3.235543 -4.216642 7.984252, 3.504397 -3.995999 7.984252, 3.758245 -3.758245 7.984252, 3.995999 -3.504397 7.984252, 4.216642 -3.235543 7.984252, 4.419228 -2.952834 7.984252, 4.602891 -2.657480 7.984252, 4.766843 -2.350747 7.984252, 4.910383 -2.033947 7.984252, 5.032896 -1.708438 7.984252, 5.133858 -1.375613 7.984252, 5.212835 -1.036897 7.984252, 5.269490 -0.693742 7.984252, 5.303581 -0.347615 7.984252 ] } coordIndex [ 95 94 93 92 91 90 89 88 87 86 85 84 83 82 81 80 79 78 77 76 75 74 73 72 71 70 69 68 67 66 65 64 63 62 61 60 59 58 57 56 55 54 53 52 51 50 49 48 47 46 45 44 43 42 41 40 39 38 37 36 35 34 33 32 31 30 29 28 27 26 25 24 23 22 21 20 19 18 17 16 15 14 13 12 11 10 9 8 7 6 5 4 3 2 1 0, -1, 96 97 98 99 100 101 102 103 104 105 106 107 108 109 110 111 112 113 114 115 116 117 118 119 120 121 122 123 124 125 126 127 128 129 130 131 132 133 134 135 136 137 138 139 140 141 142 143 144 145 146 147 148 149 150 151 152 153 154 155 156 157 158 159 160 161 162 163 164 165 166 167 168 169 170 171 172 173 174 175 176 177 178 179 180 181 182 183 184 185 186 187 188 189 190 191, -1, 0 1 97 96, -1, 1 2 98 97, -1, 2 3 99 98, -1, 3 4 100 99, -1, 4 5 101 100, -1, 5 6 102 101, -1, 6 7 103 102, -1, 7 8 104 103, -1, 8 9 105 104, -1, 9 10 106 105, -1, 10 11 107 106, -1, 11 12 108 107, -1, 12 13 109 108, -1, 13 14 110 109, -1, 14 15 111 110, -1, 15 16 112 111, -1, 16 17 113 112, -1, 17 18 114 113, -1, 18 19 115 114, -1, 19 20 116 115, -1, 20 21 117 116, -1, 21 22 118 117, -1, 22 23 119 118, -1, 23 24 120 119, -1, 24 25 121 120, -1, 25 26 122 121, -1, 26 27 123 122, -1, 27 28 124 123, -1, 28 29 125 124, -1, 29 30 126 125, -1, 30 31 127 126, -1, 31 32 128 127, -1, 32 33 129 128, -1, 33 34 130 129, -1, 34 35 131 130, -1, 35 36 132 131, -1, 36 37 133 132, -1, 37 38 134 133, -1, 38 39 135 134, -1, 39 40 136 135, -1, 40 41 137 136, -1, 41 42 138 137, -1, 42 43 139 138, -1, 43 44 140 139, -1, 44 45 141 140, -1, 45 46 142 141, -1, 46 47 143 142, -1, 47 48 144 143, -1, 48 49 145 144, -1, 49 50 146 145, -1, 50 51 147 146, -1, 51 52 148 147, -1, 52 53 149 148, -1, 53 54 150 149, -1, 54 55 151 150, -1, 55 56 152 151, -1, 56 57 153 152, -1, 57 58 154 153, -1, 58 59 155 154, -1, 59 60 156 155, -1, 60 61 157 156, -1, 61 62 158 157, -1, 62 63 159 158, -1, 63 64 160 159, -1, 64 65 161 160, -1, 65 66 162 161, -1, 66 67 163 162, -1, 67 68 164 163, -1, 68 69 165 164, -1, 69 70 166 165, -1, 70 71 167 166, -1, 71 72 168 167, -1, 72 73 169 168, -1, 73 74 170 169, -1, 74 75 171 170, -1, 75 76 172 171, -1, 76 77 173 172, -1, 77 78 174 173, -1, 78 79 175 174, -1, 79 80 176 175, -1, 80 81 177 176, -1, 81 82 178 177, -1, 82 83 179 178, -1, 83 84 180 179, -1, 84 85 181 180, -1, 85 86 182 181, -1, 86 87 183 182, -1, 87 88 184 183, -1, 88 89 185 184, -1, 89 90 186 185, -1, 90 91 187 186, -1, 91 92 188 187, -1, 92 93 189 188, -1, 93 94 190 189, -1, 94 95 191 190, -1, 95 0 96 191, -1 ] } }
Shape { appearance Appearance { material Material { diffuseColor 0.78 0.79 0.76 } } geometry IndexedFaceSet { solid FALSE coord Coordinate { point [ 4.133858 0.000000 7.988189, 4.125007 0.270367 7.988189, 4.098493 0.539577 7.988189, 4.054427 0.806476 7.988189, 3.993000 1.069921 7.988189, 3.914475 1.328785 7.988189, 3.819187 1.581959 7.988189, 3.707545 1.828359 7.988189, 3.580026 2.066929 7.988189, 3.437178 2.296649 7.988189, 3.279610 2.516533 7.988189, 3.107999 2.725642 7.988189, 2.923079 2.923079 7.988189, 2.725642 3.107999 7.988189, 2.516533 3.279610 7.988189, 2.296649 3.437178 7.988189, 2.066929 3.580026 7.988189, 1.828359 3.707545 7.988189, 1.581959 3.819187 7.988189, 1.328785 3.914475 7.988189, 1.069921 3.993000 7.988189, 0.806476 4.054427 7.988189, 0.539577 4.098493 7.988189, 0.270367 4.125007 7.988189, 0.000000 4.133858 7.988189, -0.270367 4.125007 7.988189, -0.539577 4.098493 7.988189, -0.806476 4.054427 7.988189, -1.069921 3.993000 7.988189, -1.328785 3.914475 7.988189, -1.581959 3.819187 7.988189, -1.828359 3.707545 7.988189, -2.066929 3.580026 7.988189, -2.296649 3.437178 7.988189, -2.516533 3.279610 7.988189, -2.725642 3.107999 7.988189, -2.923079 2.923079 7.988189, -3.107999 2.725642 7.988189, -3.279610 2.516533 7.988189, -3.437178 2.296649 7.988189, -3.580026 2.066929 7.988189, -3.707545 1.828359 7.988189, -3.819187 1.581959 7.988189, -3.914475 1.328785 7.988189, -3.993000 1.069921 7.988189, -4.054427 0.806476 7.988189, -4.098493 0.539577 7.988189, -4.125007 0.270367 7.988189, -4.133858 0.000000 7.988189, -4.125007 -0.270367 7.988189, -4.098493 -0.539577 7.988189, -4.054427 -0.806476 7.988189, -3.993000 -1.069921 7.988189, -3.914475 -1.328785 7.988189, -3.819187 -1.581959 7.988189, -3.707545 -1.828359 7.988189, -3.580026 -2.066929 7.988189, -3.437178 -2.296649 7.988189, -3.279610 -2.516533 7.988189, -3.107999 -2.725642 7.988189, -2.923079 -2.923079 7.988189, -2.725642 -3.107999 7.988189, -2.516533 -3.279610 7.988189, -2.296649 -3.437178 7.988189, -2.066929 -3.580026 7.988189, -1.828359 -3.707545 7.988189, -1.581959 -3.819187 7.988189, -1.328785 -3.914475 7.988189, -1.069921 -3.993000 7.988189, -0.806476 -4.054427 7.988189, -0.539577 -4.098493 7.988189, -0.270367 -4.125007 7.988189, -0.000000 -4.133858 7.988189, 0.270367 -4.125007 7.988189, 0.539577 -4.098493 7.988189, 0.806476 -4.054427 7.988189, 1.069921 -3.993000 7.988189, 1.328785 -3.914475 7.988189, 1.581959 -3.819187 7.988189, 1.828359 -3.707545 7.988189, 2.066929 -3.580026 7.988189, 2.296649 -3.437178 7.988189, 2.516533 -3.279610 7.988189, 2.725642 -3.107999 7.988189, 2.923079 -2.923079 7.988189, 3.107999 -2.725642 7.988189, 3.279610 -2.516533 7.988189, 3.437178 -2.296649 7.988189, 3.580026 -2.066929 7.988189, 3.707545 -1.828359 7.988189, 3.819187 -1.581959 7.988189, 3.914475 -1.328785 7.988189, 3.993000 -1.069921 7.988189, 4.054427 -0.806476 7.988189, 4.098493 -0.539577 7.988189, 4.125007 -0.270367 7.988189, 4.133858 0.000000 8.019685, 4.125007 0.270367 8.019685, 4.098493 0.539577 8.019685, 4.054427 0.806476 8.019685, 3.993000 1.069921 8.019685, 3.914475 1.328785 8.019685, 3.819187 1.581959 8.019685, 3.707545 1.828359 8.019685, 3.580026 2.066929 8.019685, 3.437178 2.296649 8.019685, 3.279610 2.516533 8.019685, 3.107999 2.725642 8.019685, 2.923079 2.923079 8.019685, 2.725642 3.107999 8.019685, 2.516533 3.279610 8.019685, 2.296649 3.437178 8.019685, 2.066929 3.580026 8.019685, 1.828359 3.707545 8.019685, 1.581959 3.819187 8.019685, 1.328785 3.914475 8.019685, 1.069921 3.993000 8.019685, 0.806476 4.054427 8.019685, 0.539577 4.098493 8.019685, 0.270367 4.125007 8.019685, 0.000000 4.133858 8.019685, -0.270367 4.125007 8.019685, -0.539577 4.098493 8.019685, -0.806476 4.054427 8.019685, -1.069921 3.993000 8.019685, -1.328785 3.914475 8.019685, -1.581959 3.819187 8.019685, -1.828359 3.707545 8.019685, -2.066929 3.580026 8.019685, -2.296649 3.437178 8.019685, -2.516533 3.279610 8.019685, -2.725642 3.107999 8.019685, -2.923079 2.923079 8.019685, -3.107999 2.725642 8.019685, -3.279610 2.516533 8.019685, -3.437178 2.296649 8.019685, -3.580026 2.066929 8.019685, -3.707545 1.828359 8.019685, -3.819187 1.581959 8.019685, -3.914475 1.328785 8.019685, -3.993000 1.069921 8.019685, -4.054427 0.806476 8.019685, -4.098493 0.539577 8.019685, -4.125007 0.270367 8.019685, -4.133858 0.000000 8.019685, -4.125007 -0.270367 8.019685, -4.098493 -0.539577 8.019685, -4.054427 -0.806476 8.019685, -3.993000 -1.069921 8.019685, -3.914475 -1.328785 8.019685, -3.819187 -1.581959 8.019685, -3.707545 -1.828359 8.019685, -3.580026 -2.066929 8.019685, -3.437178 -2.296649 8.019685, -3.279610 -2.516533 8.019685, -3.107999 -2.725642 8.019685, -2.923079 -2.923079 8.019685, -2.725642 -3.107999 8.019685, -2.516533 -3.279610 8.019685, -2.296649 -3.437178 8.019685, -2.066929 -3.580026 8.019685, -1.828359 -3.707545 8.019685, -1.581959 -3.819187 8.019685, -1.328785 -3.914475 8.019685, -1.069921 -3.993000 8.019685, -0.806476 -4.054427 8.019685, -0.539577 -4.098493 8.019685, -0.270367 -4.125007 8.019685, -0.000000 -4.133858 8.019685, 0.270367 -4.125007 8.019685, 0.539577 -4.098493 8.019685, 0.806476 -4.054427 8.019685, 1.069921 -3.993000 8.019685, 1.328785 -3.914475 8.019685, 1.581959 -3.819187 8.019685, 1.828359 -3.707545 8.019685, 2.066929 -3.580026 8.019685, 2.296649 -3.437178 8.019685, 2.516533 -3.279610 8.019685, 2.725642 -3.107999 8.019685, 2.923079 -2.923079 8.019685, 3.107999 -2.725642 8.019685, 3.279610 -2.516533 8.019685, 3.437178 -2.296649 8.019685, 3.580026 -2.066929 8.019685, 3.707545 -1.828359 8.019685, 3.819187 -1.581959 8.019685, 3.914475 -1.328785 8.019685, 3.993000 -1.069921 8.019685, 4.054427 -0.806476 8.019685, 4.098493 -0.539577 8.019685, 4.125007 -0.270367 8.019685 ] } coordIndex [ 95 94 93 92 91 90 89 88 87 86 85 84 83 82 81 80 79 78 77 76 75 74 73 72 71 70 69 68 67 66 65 64 63 62 61 60 59 58 57 56 55 54 53 52 51 50 49 48 47 46 45 44 43 42 41 40 39 38 37 36 35 34 33 32 31 30 29 28 27 26 25 24 23 22 21 20 19 18 17 16 15 14 13 12 11 10 9 8 7 6 5 4 3 2 1 0, -1, 96 97 98 99 100 101 102 103 104 105 106 107 108 109 110 111 112 113 114 115 116 117 118 119 120 121 122 123 124 125 126 127 128 129 130 131 132 133 134 135 136 137 138 139 140 141 142 143 144 145 146 147 148 149 150 151 152 153 154 155 156 157 158 159 160 161 162 163 164 165 166 167 168 169 170 171 172 173 174 175 176 177 178 179 180 181 182 183 184 185 186 187 188 189 190 191, -1, 0 1 97 96, -1, 1 2 98 97, -1, 2 3 99 98, -1, 3 4 100 99, -1, 4 5 101 100, -1, 5 6 102 101, -1, 6 7 103 102, -1, 7 8 104 103, -1, 8 9 105 104, -1, 9 10 106 105, -1, 10 11 107 106, -1, 11 12 108 107, -1, 12 13 109 108, -1, 13 14 110 109, -1, 14 15 111 110, -1, 15 16 112 111, -1, 16 17 113 112, -1, 17 18 114 113, -1, 18 19 115 114, -1, 19 20 116 115, -1, 20 21 117 116, -1, 21 22 118 117, -1, 22 23 119 118, -1, 23 24 120 119, -1, 24 25 121 120, -1, 25 26 122 121, -1, 26 27 123 122, -1, 27 28 124 123, -1, 28 29 125 124, -1, 29 30 126 125, -1, 30 31 127 126, -1, 31 32 128 127, -1, 32 33 129 128, -1, 33 34 130 129, -1, 34 35 131 130, -1, 35 36 132 131, -1, 36 37 133 132, -1, 37 38 134 133, -1, 38 39 135 134, -1, 39 40 136 135, -1, 40 41 137 136, -1, 41 42 138 137, -1, 42 43 139 138, -1, 43 44 140 139, -1, 44 45 141 140, -1, 45 46 142 141, -1, 46 47 143 142, -1, 47 48 144 143, -1, 48 49 145 144, -1, 49 50 146 145, -1, 50 51 147 146, -1, 51 52 148 147, -1, 52 53 149 148, -1, 53 54 150 149, -1, 54 55 151 150, -1, 55 56 152 151, -1, 56 57 153 152, -1, 57 58 154 153, -1, 58 59 155 154, -1, 59 60 156 155, -1, 60 61 157 156, -1, 61 62 158 157, -1, 62 63 159 158, -1, 63 64 160 159, -1, 64 65 161 160, -1, 65 66 162 161, -1, 66 67 163 162, -1, 67 68 164 163, -1, 68 69 165 164, -1, 69 70 166 165, -1, 70 71 167 166, -1, 71 72 168 167, -1, 72 73 169 168, -1, 73 74 170 169, -1, 74 75 171 170, -1, 75 76 172 171, -1, 76 77 173 172, -1, 77 78 174 173, -1, 78 79 175 174, -1, 79 80 176 175, -1, 80 81 177 176, -1, 81 82 178 177, -1, 82 83 179 178, -1, 83 84 180 179, -1, 84 85 181 180, -1, 85 86 182 181, -1, 86 87 183 182, -1, 87 88 184 183, -1, 88 89 185 184, -1, 89 90 186 185, -1, 90 91 187 186, -1, 91 92 188 187, -1, 92 93 189 188, -1, 93 94 190 189, -1, 94 95 191 190, -1, 95 0 96 191, -1 ] } }
Shape { appearance Appearance { material Material { diffuseColor 0.72 0.55 0.20 } } geometry IndexedFaceSet { solid FALSE coord Coordinate { point [ 0.425197 3.346457 -1.251969, 0.410709 3.456506 -1.251969, 0.368231 3.559055 -1.251969, 0.300660 3.647116 -1.251969, 0.212598 3.714688 -1.251969, 0.110049 3.757165 -1.251969, 0.000000 3.771654 -1.251969, -0.110049 3.757165 -1.251969, -0.212598 3.714688 -1.251969, -0.300660 3.647116 -1.251969, -0.368231 3.559055 -1.251969, -0.410709 3.456506 -1.251969, -0.425197 3.346457 -1.251969, -0.410709 3.236408 -1.251969, -0.368231 3.133858 -1.251969, -0.300660 3.045797 -1.251969, -0.212598 2.978225 -1.251969, -0.110049 2.935748 -1.251969, -0.000000 2.921260 -1.251969, 0.110049 2.935748 -1.251969, 0.212598 2.978225 -1.251969, 0.300660 3.045797 -1.251969, 0.368231 3.133858 -1.251969, 0.410709 3.236408 -1.251969, 0.425197 3.346457 0.000000, 0.410709 3.456506 0.000000, 0.368231 3.559055 0.000000, 0.300660 3.647116 0.000000, 0.212598 3.714688 0.000000, 0.110049 3.757165 0.000000, 0.000000 3.771654 0.000000, -0.110049 3.757165 0.000000, -0.212598 3.714688 0.000000, -0.300660 3.647116 0.000000, -0.368231 3.559055 0.000000, -0.410709 3.456506 0.000000, -0.425197 3.346457 0.000000, -0.410709 3.236408 0.000000, -0.368231 3.133858 0.000000, -0.300660 3.045797 0.000000, -0.212598 2.978225 0.000000, -0.110049 2.935748 0.000000, -0.000000 2.921260 0.000000, 0.110049 2.935748 0.000000, 0.212598 2.978225 0.000000, 0.300660 3.045797 0.000000, 0.368231 3.133858 0.000000, 0.410709 3.236408 0.000000 ] } coordIndex [ 23 22 21 20 19 18 17 16 15 14 13 12 11 10 9 8 7 6 5 4 3 2 1 0, -1, 24 25 26 27 28 29 30 31 32 33 34 35 36 37 38 39 40 41 42 43 44 45 46 47, -1, 0 1 25 24, -1, 1 2 26 25, -1, 2 3 27 26, -1, 3 4 28 27, -1, 4 5 29 28, -1, 5 6 30 29, -1, 6 7 31 30, -1, 7 8 32 31, -1, 8 9 33 32, -1, 9 10 34 33, -1, 10 11 35 34, -1, 11 12 36 35, -1, 12 13 37 36, -1, 13 14 38 37, -1, 14 15 39 38, -1, 15 16 40 39, -1, 16 17 41 40, -1, 17 18 42 41, -1, 18 19 43 42, -1, 19 20 44 43, -1, 20 21 45 44, -1, 21 22 46 45, -1, 22 23 47 46, -1, 23 0 24 47, -1 ] } }
Shape { appearance Appearance { material Material { diffuseColor 0.72 0.55 0.20 } } geometry IndexedFaceSet { solid FALSE coord Coordinate { point [ 0.625984 3.346457 0.000000, 0.604654 3.508473 0.000000, 0.542118 3.659449 0.000000, 0.442638 3.789094 0.000000, 0.312992 3.888575 0.000000, 0.162017 3.951111 0.000000, 0.000000 3.972441 0.000000, -0.162017 3.951111 0.000000, -0.312992 3.888575 0.000000, -0.442638 3.789094 0.000000, -0.542118 3.659449 0.000000, -0.604654 3.508473 0.000000, -0.625984 3.346457 0.000000, -0.604654 3.184440 0.000000, -0.542118 3.033465 0.000000, -0.442638 2.903819 0.000000, -0.312992 2.804338 0.000000, -0.162017 2.741802 0.000000, -0.000000 2.720472 0.000000, 0.162017 2.741802 0.000000, 0.312992 2.804338 0.000000, 0.442638 2.903819 0.000000, 0.542118 3.033465 0.000000, 0.604654 3.184440 0.000000, 0.625984 3.346457 0.318898, 0.604654 3.508473 0.318898, 0.542118 3.659449 0.318898, 0.442638 3.789094 0.318898, 0.312992 3.888575 0.318898, 0.162017 3.951111 0.318898, 0.000000 3.972441 0.318898, -0.162017 3.951111 0.318898, -0.312992 3.888575 0.318898, -0.442638 3.789094 0.318898, -0.542118 3.659449 0.318898, -0.604654 3.508473 0.318898, -0.625984 3.346457 0.318898, -0.604654 3.184440 0.318898, -0.542118 3.033465 0.318898, -0.442638 2.903819 0.318898, -0.312992 2.804338 0.318898, -0.162017 2.741802 0.318898, -0.000000 2.720472 0.318898, 0.162017 2.741802 0.318898, 0.312992 2.804338 0.318898, 0.442638 2.903819 0.318898, 0.542118 3.033465 0.318898, 0.604654 3.184440 0.318898 ] } coordIndex [ 23 22 21 20 19 18 17 16 15 14 13 12 11 10 9 8 7 6 5 4 3 2 1 0, -1, 24 25 26 27 28 29 30 31 32 33 34 35 36 37 38 39 40 41 42 43 44 45 46 47, -1, 0 1 25 24, -1, 1 2 26 25, -1, 2 3 27 26, -1, 3 4 28 27, -1, 4 5 29 28, -1, 5 6 30 29, -1, 6 7 31 30, -1, 7 8 32 31, -1, 8 9 33 32, -1, 9 10 34 33, -1, 10 11 35 34, -1, 11 12 36 35, -1, 12 13 37 36, -1, 13 14 38 37, -1, 14 15 39 38, -1, 15 16 40 39, -1, 16 17 41 40, -1, 17 18 42 41, -1, 18 19 43 42, -1, 19 20 44 43, -1, 20 21 45 44, -1, 21 22 46 45, -1, 22 23 47 46, -1, 23 0 24 47, -1 ] } }
Shape { appearance Appearance { material Material { diffuseColor 0.72 0.55 0.20 } } geometry IndexedFaceSet { solid FALSE coord Coordinate { point [ 0.454724 3.346457 0.318898, 0.439230 3.464148 0.318898, 0.393803 3.573819 0.318898, 0.321539 3.667995 0.318898, 0.227362 3.740260 0.318898, 0.117691 3.785687 0.318898, 0.000000 3.801181 0.318898, -0.117691 3.785687 0.318898, -0.227362 3.740260 0.318898, -0.321539 3.667995 0.318898, -0.393803 3.573819 0.318898, -0.439230 3.464148 0.318898, -0.454724 3.346457 0.318898, -0.439230 3.228765 0.318898, -0.393803 3.119094 0.318898, -0.321539 3.024918 0.318898, -0.227362 2.952654 0.318898, -0.117691 2.907227 0.318898, -0.000000 2.891732 0.318898, 0.117691 2.907227 0.318898, 0.227362 2.952654 0.318898, 0.321539 3.024918 0.318898, 0.393803 3.119094 0.318898, 0.439230 3.228765 0.318898, 0.454724 3.346457 1.921260, 0.439230 3.464148 1.921260, 0.393803 3.573819 1.921260, 0.321539 3.667995 1.921260, 0.227362 3.740260 1.921260, 0.117691 3.785687 1.921260, 0.000000 3.801181 1.921260, -0.117691 3.785687 1.921260, -0.227362 3.740260 1.921260, -0.321539 3.667995 1.921260, -0.393803 3.573819 1.921260, -0.439230 3.464148 1.921260, -0.454724 3.346457 1.921260, -0.439230 3.228765 1.921260, -0.393803 3.119094 1.921260, -0.321539 3.024918 1.921260, -0.227362 2.952654 1.921260, -0.117691 2.907227 1.921260, -0.000000 2.891732 1.921260, 0.117691 2.907227 1.921260, 0.227362 2.952654 1.921260, 0.321539 3.024918 1.921260, 0.393803 3.119094 1.921260, 0.439230 3.228765 1.921260 ] } coordIndex [ 23 22 21 20 19 18 17 16 15 14 13 12 11 10 9 8 7 6 5 4 3 2 1 0, -1, 24 25 26 27 28 29 30 31 32 33 34 35 36 37 38 39 40 41 42 43 44 45 46 47, -1, 0 1 25 24, -1, 1 2 26 25, -1, 2 3 27 26, -1, 3 4 28 27, -1, 4 5 29 28, -1, 5 6 30 29, -1, 6 7 31 30, -1, 7 8 32 31, -1, 8 9 33 32, -1, 9 10 34 33, -1, 10 11 35 34, -1, 11 12 36 35, -1, 12 13 37 36, -1, 13 14 38 37, -1, 14 15 39 38, -1, 15 16 40 39, -1, 16 17 41 40, -1, 17 18 42 41, -1, 18 19 43 42, -1, 19 20 44 43, -1, 20 21 45 44, -1, 21 22 46 45, -1, 22 23 47 46, -1, 23 0 24 47, -1 ] } }
Shape { appearance Appearance { material Material { diffuseColor 0.72 0.55 0.20 } } geometry IndexedFaceSet { solid FALSE coord Coordinate { point [ 2.791499 2.366302 -1.251969, 2.777011 2.476351 -1.251969, 2.734534 2.578901 -1.251969, 2.666962 2.666962 -1.251969, 2.578901 2.734534 -1.251969, 2.476351 2.777011 -1.251969, 2.366302 2.791499 -1.251969, 2.256253 2.777011 -1.251969, 2.153704 2.734534 -1.251969, 2.065643 2.666962 -1.251969, 1.998071 2.578901 -1.251969, 1.955594 2.476351 -1.251969, 1.941106 2.366302 -1.251969, 1.955594 2.256253 -1.251969, 1.998071 2.153704 -1.251969, 2.065643 2.065643 -1.251969, 2.153704 1.998071 -1.251969, 2.256253 1.955594 -1.251969, 2.366302 1.941106 -1.251969, 2.476351 1.955594 -1.251969, 2.578901 1.998071 -1.251969, 2.666962 2.065643 -1.251969, 2.734534 2.153704 -1.251969, 2.777011 2.256253 -1.251969, 2.791499 2.366302 0.000000, 2.777011 2.476351 0.000000, 2.734534 2.578901 0.000000, 2.666962 2.666962 0.000000, 2.578901 2.734534 0.000000, 2.476351 2.777011 0.000000, 2.366302 2.791499 0.000000, 2.256253 2.777011 0.000000, 2.153704 2.734534 0.000000, 2.065643 2.666962 0.000000, 1.998071 2.578901 0.000000, 1.955594 2.476351 0.000000, 1.941106 2.366302 0.000000, 1.955594 2.256253 0.000000, 1.998071 2.153704 0.000000, 2.065643 2.065643 0.000000, 2.153704 1.998071 0.000000, 2.256253 1.955594 0.000000, 2.366302 1.941106 0.000000, 2.476351 1.955594 0.000000, 2.578901 1.998071 0.000000, 2.666962 2.065643 0.000000, 2.734534 2.153704 0.000000, 2.777011 2.256253 0.000000 ] } coordIndex [ 23 22 21 20 19 18 17 16 15 14 13 12 11 10 9 8 7 6 5 4 3 2 1 0, -1, 24 25 26 27 28 29 30 31 32 33 34 35 36 37 38 39 40 41 42 43 44 45 46 47, -1, 0 1 25 24, -1, 1 2 26 25, -1, 2 3 27 26, -1, 3 4 28 27, -1, 4 5 29 28, -1, 5 6 30 29, -1, 6 7 31 30, -1, 7 8 32 31, -1, 8 9 33 32, -1, 9 10 34 33, -1, 10 11 35 34, -1, 11 12 36 35, -1, 12 13 37 36, -1, 13 14 38 37, -1, 14 15 39 38, -1, 15 16 40 39, -1, 16 17 41 40, -1, 17 18 42 41, -1, 18 19 43 42, -1, 19 20 44 43, -1, 20 21 45 44, -1, 21 22 46 45, -1, 22 23 47 46, -1, 23 0 24 47, -1 ] } }
Shape { appearance Appearance { material Material { diffuseColor 0.72 0.55 0.20 } } geometry IndexedFaceSet { solid FALSE coord Coordinate { point [ 2.992287 2.366302 0.000000, 2.970957 2.528319 0.000000, 2.908421 2.679294 0.000000, 2.808940 2.808940 0.000000, 2.679294 2.908421 0.000000, 2.528319 2.970957 0.000000, 2.366302 2.992287 0.000000, 2.204286 2.970957 0.000000, 2.053310 2.908421 0.000000, 1.923665 2.808940 0.000000, 1.824184 2.679294 0.000000, 1.761648 2.528319 0.000000, 1.740318 2.366302 0.000000, 1.761648 2.204286 0.000000, 1.824184 2.053310 0.000000, 1.923665 1.923665 0.000000, 2.053310 1.824184 0.000000, 2.204286 1.761648 0.000000, 2.366302 1.740318 0.000000, 2.528319 1.761648 0.000000, 2.679294 1.824184 0.000000, 2.808940 1.923665 0.000000, 2.908421 2.053310 0.000000, 2.970957 2.204286 0.000000, 2.992287 2.366302 0.318898, 2.970957 2.528319 0.318898, 2.908421 2.679294 0.318898, 2.808940 2.808940 0.318898, 2.679294 2.908421 0.318898, 2.528319 2.970957 0.318898, 2.366302 2.992287 0.318898, 2.204286 2.970957 0.318898, 2.053310 2.908421 0.318898, 1.923665 2.808940 0.318898, 1.824184 2.679294 0.318898, 1.761648 2.528319 0.318898, 1.740318 2.366302 0.318898, 1.761648 2.204286 0.318898, 1.824184 2.053310 0.318898, 1.923665 1.923665 0.318898, 2.053310 1.824184 0.318898, 2.204286 1.761648 0.318898, 2.366302 1.740318 0.318898, 2.528319 1.761648 0.318898, 2.679294 1.824184 0.318898, 2.808940 1.923665 0.318898, 2.908421 2.053310 0.318898, 2.970957 2.204286 0.318898 ] } coordIndex [ 23 22 21 20 19 18 17 16 15 14 13 12 11 10 9 8 7 6 5 4 3 2 1 0, -1, 24 25 26 27 28 29 30 31 32 33 34 35 36 37 38 39 40 41 42 43 44 45 46 47, -1, 0 1 25 24, -1, 1 2 26 25, -1, 2 3 27 26, -1, 3 4 28 27, -1, 4 5 29 28, -1, 5 6 30 29, -1, 6 7 31 30, -1, 7 8 32 31, -1, 8 9 33 32, -1, 9 10 34 33, -1, 10 11 35 34, -1, 11 12 36 35, -1, 12 13 37 36, -1, 13 14 38 37, -1, 14 15 39 38, -1, 15 16 40 39, -1, 16 17 41 40, -1, 17 18 42 41, -1, 18 19 43 42, -1, 19 20 44 43, -1, 20 21 45 44, -1, 21 22 46 45, -1, 22 23 47 46, -1, 23 0 24 47, -1 ] } }
Shape { appearance Appearance { material Material { diffuseColor 0.72 0.55 0.20 } } geometry IndexedFaceSet { solid FALSE coord Coordinate { point [ 2.821027 2.366302 0.318898, 2.805532 2.483994 0.318898, 2.760105 2.593665 0.318898, 2.687841 2.687841 0.318898, 2.593665 2.760105 0.318898, 2.483994 2.805532 0.318898, 2.366302 2.821027 0.318898, 2.248611 2.805532 0.318898, 2.138940 2.760105 0.318898, 2.044764 2.687841 0.318898, 1.972499 2.593665 0.318898, 1.927072 2.483994 0.318898, 1.911578 2.366302 0.318898, 1.927072 2.248611 0.318898, 1.972499 2.138940 0.318898, 2.044764 2.044764 0.318898, 2.138940 1.972499 0.318898, 2.248611 1.927072 0.318898, 2.366302 1.911578 0.318898, 2.483994 1.927072 0.318898, 2.593665 1.972499 0.318898, 2.687841 2.044764 0.318898, 2.760105 2.138940 0.318898, 2.805532 2.248611 0.318898, 2.821027 2.366302 1.921260, 2.805532 2.483994 1.921260, 2.760105 2.593665 1.921260, 2.687841 2.687841 1.921260, 2.593665 2.760105 1.921260, 2.483994 2.805532 1.921260, 2.366302 2.821027 1.921260, 2.248611 2.805532 1.921260, 2.138940 2.760105 1.921260, 2.044764 2.687841 1.921260, 1.972499 2.593665 1.921260, 1.927072 2.483994 1.921260, 1.911578 2.366302 1.921260, 1.927072 2.248611 1.921260, 1.972499 2.138940 1.921260, 2.044764 2.044764 1.921260, 2.138940 1.972499 1.921260, 2.248611 1.927072 1.921260, 2.366302 1.911578 1.921260, 2.483994 1.927072 1.921260, 2.593665 1.972499 1.921260, 2.687841 2.044764 1.921260, 2.760105 2.138940 1.921260, 2.805532 2.248611 1.921260 ] } coordIndex [ 23 22 21 20 19 18 17 16 15 14 13 12 11 10 9 8 7 6 5 4 3 2 1 0, -1, 24 25 26 27 28 29 30 31 32 33 34 35 36 37 38 39 40 41 42 43 44 45 46 47, -1, 0 1 25 24, -1, 1 2 26 25, -1, 2 3 27 26, -1, 3 4 28 27, -1, 4 5 29 28, -1, 5 6 30 29, -1, 6 7 31 30, -1, 7 8 32 31, -1, 8 9 33 32, -1, 9 10 34 33, -1, 10 11 35 34, -1, 11 12 36 35, -1, 12 13 37 36, -1, 13 14 38 37, -1, 14 15 39 38, -1, 15 16 40 39, -1, 16 17 41 40, -1, 17 18 42 41, -1, 18 19 43 42, -1, 19 20 44 43, -1, 20 21 45 44, -1, 21 22 46 45, -1, 22 23 47 46, -1, 23 0 24 47, -1 ] } }
Shape { appearance Appearance { material Material { diffuseColor 0.72 0.55 0.20 } } geometry IndexedFaceSet { solid FALSE coord Coordinate { point [ -1.941106 2.366302 -1.251969, -1.955594 2.476351 -1.251969, -1.998071 2.578901 -1.251969, -2.065643 2.666962 -1.251969, -2.153704 2.734534 -1.251969, -2.256253 2.777011 -1.251969, -2.366302 2.791499 -1.251969, -2.476351 2.777011 -1.251969, -2.578901 2.734534 -1.251969, -2.666962 2.666962 -1.251969, -2.734534 2.578901 -1.251969, -2.777011 2.476351 -1.251969, -2.791499 2.366302 -1.251969, -2.777011 2.256253 -1.251969, -2.734534 2.153704 -1.251969, -2.666962 2.065643 -1.251969, -2.578901 1.998071 -1.251969, -2.476351 1.955594 -1.251969, -2.366302 1.941106 -1.251969, -2.256253 1.955594 -1.251969, -2.153704 1.998071 -1.251969, -2.065643 2.065643 -1.251969, -1.998071 2.153704 -1.251969, -1.955594 2.256253 -1.251969, -1.941106 2.366302 0.000000, -1.955594 2.476351 0.000000, -1.998071 2.578901 0.000000, -2.065643 2.666962 0.000000, -2.153704 2.734534 0.000000, -2.256253 2.777011 0.000000, -2.366302 2.791499 0.000000, -2.476351 2.777011 0.000000, -2.578901 2.734534 0.000000, -2.666962 2.666962 0.000000, -2.734534 2.578901 0.000000, -2.777011 2.476351 0.000000, -2.791499 2.366302 0.000000, -2.777011 2.256253 0.000000, -2.734534 2.153704 0.000000, -2.666962 2.065643 0.000000, -2.578901 1.998071 0.000000, -2.476351 1.955594 0.000000, -2.366302 1.941106 0.000000, -2.256253 1.955594 0.000000, -2.153704 1.998071 0.000000, -2.065643 2.065643 0.000000, -1.998071 2.153704 0.000000, -1.955594 2.256253 0.000000 ] } coordIndex [ 23 22 21 20 19 18 17 16 15 14 13 12 11 10 9 8 7 6 5 4 3 2 1 0, -1, 24 25 26 27 28 29 30 31 32 33 34 35 36 37 38 39 40 41 42 43 44 45 46 47, -1, 0 1 25 24, -1, 1 2 26 25, -1, 2 3 27 26, -1, 3 4 28 27, -1, 4 5 29 28, -1, 5 6 30 29, -1, 6 7 31 30, -1, 7 8 32 31, -1, 8 9 33 32, -1, 9 10 34 33, -1, 10 11 35 34, -1, 11 12 36 35, -1, 12 13 37 36, -1, 13 14 38 37, -1, 14 15 39 38, -1, 15 16 40 39, -1, 16 17 41 40, -1, 17 18 42 41, -1, 18 19 43 42, -1, 19 20 44 43, -1, 20 21 45 44, -1, 21 22 46 45, -1, 22 23 47 46, -1, 23 0 24 47, -1 ] } }
Shape { appearance Appearance { material Material { diffuseColor 0.72 0.55 0.20 } } geometry IndexedFaceSet { solid FALSE coord Coordinate { point [ -1.740318 2.366302 0.000000, -1.761648 2.528319 0.000000, -1.824184 2.679294 0.000000, -1.923665 2.808940 0.000000, -2.053310 2.908421 0.000000, -2.204286 2.970957 0.000000, -2.366302 2.992287 0.000000, -2.528319 2.970957 0.000000, -2.679294 2.908421 0.000000, -2.808940 2.808940 0.000000, -2.908421 2.679294 0.000000, -2.970957 2.528319 0.000000, -2.992287 2.366302 0.000000, -2.970957 2.204286 0.000000, -2.908421 2.053310 0.000000, -2.808940 1.923665 0.000000, -2.679294 1.824184 0.000000, -2.528319 1.761648 0.000000, -2.366302 1.740318 0.000000, -2.204286 1.761648 0.000000, -2.053310 1.824184 0.000000, -1.923665 1.923665 0.000000, -1.824184 2.053310 0.000000, -1.761648 2.204286 0.000000, -1.740318 2.366302 0.318898, -1.761648 2.528319 0.318898, -1.824184 2.679294 0.318898, -1.923665 2.808940 0.318898, -2.053310 2.908421 0.318898, -2.204286 2.970957 0.318898, -2.366302 2.992287 0.318898, -2.528319 2.970957 0.318898, -2.679294 2.908421 0.318898, -2.808940 2.808940 0.318898, -2.908421 2.679294 0.318898, -2.970957 2.528319 0.318898, -2.992287 2.366302 0.318898, -2.970957 2.204286 0.318898, -2.908421 2.053310 0.318898, -2.808940 1.923665 0.318898, -2.679294 1.824184 0.318898, -2.528319 1.761648 0.318898, -2.366302 1.740318 0.318898, -2.204286 1.761648 0.318898, -2.053310 1.824184 0.318898, -1.923665 1.923665 0.318898, -1.824184 2.053310 0.318898, -1.761648 2.204286 0.318898 ] } coordIndex [ 23 22 21 20 19 18 17 16 15 14 13 12 11 10 9 8 7 6 5 4 3 2 1 0, -1, 24 25 26 27 28 29 30 31 32 33 34 35 36 37 38 39 40 41 42 43 44 45 46 47, -1, 0 1 25 24, -1, 1 2 26 25, -1, 2 3 27 26, -1, 3 4 28 27, -1, 4 5 29 28, -1, 5 6 30 29, -1, 6 7 31 30, -1, 7 8 32 31, -1, 8 9 33 32, -1, 9 10 34 33, -1, 10 11 35 34, -1, 11 12 36 35, -1, 12 13 37 36, -1, 13 14 38 37, -1, 14 15 39 38, -1, 15 16 40 39, -1, 16 17 41 40, -1, 17 18 42 41, -1, 18 19 43 42, -1, 19 20 44 43, -1, 20 21 45 44, -1, 21 22 46 45, -1, 22 23 47 46, -1, 23 0 24 47, -1 ] } }
Shape { appearance Appearance { material Material { diffuseColor 0.72 0.55 0.20 } } geometry IndexedFaceSet { solid FALSE coord Coordinate { point [ -1.911578 2.366302 0.318898, -1.927072 2.483994 0.318898, -1.972499 2.593665 0.318898, -2.044764 2.687841 0.318898, -2.138940 2.760105 0.318898, -2.248611 2.805532 0.318898, -2.366302 2.821027 0.318898, -2.483994 2.805532 0.318898, -2.593665 2.760105 0.318898, -2.687841 2.687841 0.318898, -2.760105 2.593665 0.318898, -2.805532 2.483994 0.318898, -2.821027 2.366302 0.318898, -2.805532 2.248611 0.318898, -2.760105 2.138940 0.318898, -2.687841 2.044764 0.318898, -2.593665 1.972499 0.318898, -2.483994 1.927072 0.318898, -2.366302 1.911578 0.318898, -2.248611 1.927072 0.318898, -2.138940 1.972499 0.318898, -2.044764 2.044764 0.318898, -1.972499 2.138940 0.318898, -1.927072 2.248611 0.318898, -1.911578 2.366302 1.921260, -1.927072 2.483994 1.921260, -1.972499 2.593665 1.921260, -2.044764 2.687841 1.921260, -2.138940 2.760105 1.921260, -2.248611 2.805532 1.921260, -2.366302 2.821027 1.921260, -2.483994 2.805532 1.921260, -2.593665 2.760105 1.921260, -2.687841 2.687841 1.921260, -2.760105 2.593665 1.921260, -2.805532 2.483994 1.921260, -2.821027 2.366302 1.921260, -2.805532 2.248611 1.921260, -2.760105 2.138940 1.921260, -2.687841 2.044764 1.921260, -2.593665 1.972499 1.921260, -2.483994 1.927072 1.921260, -2.366302 1.911578 1.921260, -2.248611 1.927072 1.921260, -2.138940 1.972499 1.921260, -2.044764 2.044764 1.921260, -1.972499 2.138940 1.921260, -1.927072 2.248611 1.921260 ] } coordIndex [ 23 22 21 20 19 18 17 16 15 14 13 12 11 10 9 8 7 6 5 4 3 2 1 0, -1, 24 25 26 27 28 29 30 31 32 33 34 35 36 37 38 39 40 41 42 43 44 45 46 47, -1, 0 1 25 24, -1, 1 2 26 25, -1, 2 3 27 26, -1, 3 4 28 27, -1, 4 5 29 28, -1, 5 6 30 29, -1, 6 7 31 30, -1, 7 8 32 31, -1, 8 9 33 32, -1, 9 10 34 33, -1, 10 11 35 34, -1, 11 12 36 35, -1, 12 13 37 36, -1, 13 14 38 37, -1, 14 15 39 38, -1, 15 16 40 39, -1, 16 17 41 40, -1, 17 18 42 41, -1, 18 19 43 42, -1, 19 20 44 43, -1, 20 21 45 44, -1, 21 22 46 45, -1, 22 23 47 46, -1, 23 0 24 47, -1 ] } }
Shape { appearance Appearance { material Material { diffuseColor 0.72 0.55 0.20 } } geometry IndexedFaceSet { solid FALSE coord Coordinate { point [ 0.425197 -3.346457 -1.251969, 0.410709 -3.236408 -1.251969, 0.368231 -3.133858 -1.251969, 0.300660 -3.045797 -1.251969, 0.212598 -2.978225 -1.251969, 0.110049 -2.935748 -1.251969, 0.000000 -2.921260 -1.251969, -0.110049 -2.935748 -1.251969, -0.212598 -2.978225 -1.251969, -0.300660 -3.045797 -1.251969, -0.368231 -3.133858 -1.251969, -0.410709 -3.236408 -1.251969, -0.425197 -3.346457 -1.251969, -0.410709 -3.456506 -1.251969, -0.368231 -3.559055 -1.251969, -0.300660 -3.647116 -1.251969, -0.212598 -3.714688 -1.251969, -0.110049 -3.757165 -1.251969, -0.000000 -3.771654 -1.251969, 0.110049 -3.757165 -1.251969, 0.212598 -3.714688 -1.251969, 0.300660 -3.647116 -1.251969, 0.368231 -3.559055 -1.251969, 0.410709 -3.456506 -1.251969, 0.425197 -3.346457 0.000000, 0.410709 -3.236408 0.000000, 0.368231 -3.133858 0.000000, 0.300660 -3.045797 0.000000, 0.212598 -2.978225 0.000000, 0.110049 -2.935748 0.000000, 0.000000 -2.921260 0.000000, -0.110049 -2.935748 0.000000, -0.212598 -2.978225 0.000000, -0.300660 -3.045797 0.000000, -0.368231 -3.133858 0.000000, -0.410709 -3.236408 0.000000, -0.425197 -3.346457 0.000000, -0.410709 -3.456506 0.000000, -0.368231 -3.559055 0.000000, -0.300660 -3.647116 0.000000, -0.212598 -3.714688 0.000000, -0.110049 -3.757165 0.000000, -0.000000 -3.771654 0.000000, 0.110049 -3.757165 0.000000, 0.212598 -3.714688 0.000000, 0.300660 -3.647116 0.000000, 0.368231 -3.559055 0.000000, 0.410709 -3.456506 0.000000 ] } coordIndex [ 23 22 21 20 19 18 17 16 15 14 13 12 11 10 9 8 7 6 5 4 3 2 1 0, -1, 24 25 26 27 28 29 30 31 32 33 34 35 36 37 38 39 40 41 42 43 44 45 46 47, -1, 0 1 25 24, -1, 1 2 26 25, -1, 2 3 27 26, -1, 3 4 28 27, -1, 4 5 29 28, -1, 5 6 30 29, -1, 6 7 31 30, -1, 7 8 32 31, -1, 8 9 33 32, -1, 9 10 34 33, -1, 10 11 35 34, -1, 11 12 36 35, -1, 12 13 37 36, -1, 13 14 38 37, -1, 14 15 39 38, -1, 15 16 40 39, -1, 16 17 41 40, -1, 17 18 42 41, -1, 18 19 43 42, -1, 19 20 44 43, -1, 20 21 45 44, -1, 21 22 46 45, -1, 22 23 47 46, -1, 23 0 24 47, -1 ] } }
Shape { appearance Appearance { material Material { diffuseColor 0.72 0.55 0.20 } } geometry IndexedFaceSet { solid FALSE coord Coordinate { point [ 0.625984 -3.346457 0.000000, 0.604654 -3.184440 0.000000, 0.542118 -3.033465 0.000000, 0.442638 -2.903819 0.000000, 0.312992 -2.804338 0.000000, 0.162017 -2.741802 0.000000, 0.000000 -2.720472 0.000000, -0.162017 -2.741802 0.000000, -0.312992 -2.804338 0.000000, -0.442638 -2.903819 0.000000, -0.542118 -3.033465 0.000000, -0.604654 -3.184440 0.000000, -0.625984 -3.346457 0.000000, -0.604654 -3.508473 0.000000, -0.542118 -3.659449 0.000000, -0.442638 -3.789094 0.000000, -0.312992 -3.888575 0.000000, -0.162017 -3.951111 0.000000, -0.000000 -3.972441 0.000000, 0.162017 -3.951111 0.000000, 0.312992 -3.888575 0.000000, 0.442638 -3.789094 0.000000, 0.542118 -3.659449 0.000000, 0.604654 -3.508473 0.000000, 0.625984 -3.346457 0.318898, 0.604654 -3.184440 0.318898, 0.542118 -3.033465 0.318898, 0.442638 -2.903819 0.318898, 0.312992 -2.804338 0.318898, 0.162017 -2.741802 0.318898, 0.000000 -2.720472 0.318898, -0.162017 -2.741802 0.318898, -0.312992 -2.804338 0.318898, -0.442638 -2.903819 0.318898, -0.542118 -3.033465 0.318898, -0.604654 -3.184440 0.318898, -0.625984 -3.346457 0.318898, -0.604654 -3.508473 0.318898, -0.542118 -3.659449 0.318898, -0.442638 -3.789094 0.318898, -0.312992 -3.888575 0.318898, -0.162017 -3.951111 0.318898, -0.000000 -3.972441 0.318898, 0.162017 -3.951111 0.318898, 0.312992 -3.888575 0.318898, 0.442638 -3.789094 0.318898, 0.542118 -3.659449 0.318898, 0.604654 -3.508473 0.318898 ] } coordIndex [ 23 22 21 20 19 18 17 16 15 14 13 12 11 10 9 8 7 6 5 4 3 2 1 0, -1, 24 25 26 27 28 29 30 31 32 33 34 35 36 37 38 39 40 41 42 43 44 45 46 47, -1, 0 1 25 24, -1, 1 2 26 25, -1, 2 3 27 26, -1, 3 4 28 27, -1, 4 5 29 28, -1, 5 6 30 29, -1, 6 7 31 30, -1, 7 8 32 31, -1, 8 9 33 32, -1, 9 10 34 33, -1, 10 11 35 34, -1, 11 12 36 35, -1, 12 13 37 36, -1, 13 14 38 37, -1, 14 15 39 38, -1, 15 16 40 39, -1, 16 17 41 40, -1, 17 18 42 41, -1, 18 19 43 42, -1, 19 20 44 43, -1, 20 21 45 44, -1, 21 22 46 45, -1, 22 23 47 46, -1, 23 0 24 47, -1 ] } }
Shape { appearance Appearance { material Material { diffuseColor 0.72 0.55 0.20 } } geometry IndexedFaceSet { solid FALSE coord Coordinate { point [ 0.454724 -3.346457 0.318898, 0.439230 -3.228765 0.318898, 0.393803 -3.119094 0.318898, 0.321539 -3.024918 0.318898, 0.227362 -2.952654 0.318898, 0.117691 -2.907227 0.318898, 0.000000 -2.891732 0.318898, -0.117691 -2.907227 0.318898, -0.227362 -2.952654 0.318898, -0.321539 -3.024918 0.318898, -0.393803 -3.119094 0.318898, -0.439230 -3.228765 0.318898, -0.454724 -3.346457 0.318898, -0.439230 -3.464148 0.318898, -0.393803 -3.573819 0.318898, -0.321539 -3.667995 0.318898, -0.227362 -3.740260 0.318898, -0.117691 -3.785687 0.318898, -0.000000 -3.801181 0.318898, 0.117691 -3.785687 0.318898, 0.227362 -3.740260 0.318898, 0.321539 -3.667995 0.318898, 0.393803 -3.573819 0.318898, 0.439230 -3.464148 0.318898, 0.454724 -3.346457 1.921260, 0.439230 -3.228765 1.921260, 0.393803 -3.119094 1.921260, 0.321539 -3.024918 1.921260, 0.227362 -2.952654 1.921260, 0.117691 -2.907227 1.921260, 0.000000 -2.891732 1.921260, -0.117691 -2.907227 1.921260, -0.227362 -2.952654 1.921260, -0.321539 -3.024918 1.921260, -0.393803 -3.119094 1.921260, -0.439230 -3.228765 1.921260, -0.454724 -3.346457 1.921260, -0.439230 -3.464148 1.921260, -0.393803 -3.573819 1.921260, -0.321539 -3.667995 1.921260, -0.227362 -3.740260 1.921260, -0.117691 -3.785687 1.921260, -0.000000 -3.801181 1.921260, 0.117691 -3.785687 1.921260, 0.227362 -3.740260 1.921260, 0.321539 -3.667995 1.921260, 0.393803 -3.573819 1.921260, 0.439230 -3.464148 1.921260 ] } coordIndex [ 23 22 21 20 19 18 17 16 15 14 13 12 11 10 9 8 7 6 5 4 3 2 1 0, -1, 24 25 26 27 28 29 30 31 32 33 34 35 36 37 38 39 40 41 42 43 44 45 46 47, -1, 0 1 25 24, -1, 1 2 26 25, -1, 2 3 27 26, -1, 3 4 28 27, -1, 4 5 29 28, -1, 5 6 30 29, -1, 6 7 31 30, -1, 7 8 32 31, -1, 8 9 33 32, -1, 9 10 34 33, -1, 10 11 35 34, -1, 11 12 36 35, -1, 12 13 37 36, -1, 13 14 38 37, -1, 14 15 39 38, -1, 15 16 40 39, -1, 16 17 41 40, -1, 17 18 42 41, -1, 18 19 43 42, -1, 19 20 44 43, -1, 20 21 45 44, -1, 21 22 46 45, -1, 22 23 47 46, -1, 23 0 24 47, -1 ] } }
