#VRML V2.0 utf8
# Simplified dimension envelope; model units = 2.54 mm.
Transform { translation 0.0 0.0 0.11811023622047244 children [ Shape { appearance Appearance { material Material { diffuseColor 0.9 0.89 0.84 } } geometry Box { size 5.393700787401574 2.047244094488189 0.23622047244094488 } } ] }
Transform { translation -2.559055118110236 0.0 0.8661417322834646 children [ Shape { appearance Appearance { material Material { diffuseColor 0.9 0.89 0.84 } } geometry Box { size 0.2755905511811023 2.047244094488189 1.4960629921259843 } } ] }
Transform { translation 2.559055118110236 0.0 0.8661417322834646 children [ Shape { appearance Appearance { material Material { diffuseColor 0.9 0.89 0.84 } } geometry Box { size 0.2755905511811023 2.047244094488189 1.4960629921259843 } } ] }
Transform { translation 0.0 -0.905511811023622 0.8661417322834646 children [ Shape { appearance Appearance { material Material { diffuseColor 0.9 0.89 0.84 } } geometry Box { size 5.393700787401574 0.23622047244094488 1.4960629921259843 } } ] }
Transform { translation 0.0 0.905511811023622 0.8661417322834646 children [ Shape { appearance Appearance { material Material { diffuseColor 0.9 0.89 0.84 } } geometry Box { size 5.393700787401574 0.23622047244094488 1.4960629921259843 } } ] }
