#VRML V2.0 utf8
# Simplified dimension envelope; model units = 2.54 mm.
Transform { translation 0.0 0.0 0.09842519685039369 children [ Shape { appearance Appearance { material Material { diffuseColor 0.72 0.73 0.7 } } geometry Box { size 0.5905511811023622 0.5905511811023622 0.19685039370078738 } } ] }
Transform { translation 0.0 0.0 0.21653543307086615 children [ Shape { appearance Appearance { material Material { diffuseColor 0.93 0.93 0.91 } } geometry Box { size 0.4330708661417323 0.4330708661417323 0.047244094488188976 } } ] }
