#VRML V2.0 utf8
# Conceptual geometry, millimetres converted to KiCad VRML units.
Transform { translation 5.586614173228346 -26.358267716535433 2.1850393700787403 children [ Shape { appearance Appearance { material Material { diffuseColor 0.12 0.5 0.23 } } geometry Box { size 4.811023622047244 6.338582677165355 4.3700787401574805 } } ] }
Transform { translation 37.40157480314961 5.748031496062992 2.559055118110236 children [ Shape { appearance Appearance { material Material { diffuseColor 0.16 0.18 0.22 } } geometry Box { size 4.724409448818897 11.811023622047244 4.724409448818897 } } ] }
