#VRML V2.0 utf8
# Conceptual geometry, millimetres converted to KiCad VRML units.
Transform { translation 0.0 -2.559055118110236 2.1653543307086616 children [ Shape { appearance Appearance { material Material { diffuseColor 0.055 0.055 0.065 } } geometry Box { size 3.543307086614173 5.669291338582677 4.330708661417323 } } ] }
Transform { translation 0 -5.417322834645669 2.559055118110236 children [ Shape { appearance Appearance { material Material { diffuseColor 0.5 0.52 0.54 } } geometry Cylinder { radius 1.279527559055118 height 0.06299212598425197 } } ] }
Transform { translation 0 -5.456692913385827 2.559055118110236 children [ Shape { appearance Appearance { material Material { diffuseColor 0.018 0.018 0.021 } } geometry Cylinder { radius 1.1023622047244093 height 0.047244094488188976 } } ] }
Transform { translation 0 -5.488188976377953 2.559055118110236 children [ Shape { appearance Appearance { material Material { diffuseColor 0.7 0.7 0.7 } } geometry Cylinder { radius 0.39370078740157477 height 0.047244094488188976 } } ] }
Transform { translation 0.0 0.0 -0.31496062992125984 children [ Shape { appearance Appearance { material Material { diffuseColor 0.65 0.65 0.65 } } geometry Box { size 0.39370078740157477 0.6299212598425197 1.1811023622047243 } } ] }
Transform { translation 0.0 -2.3622047244094486 -0.31496062992125984 children [ Shape { appearance Appearance { material Material { diffuseColor 0.65 0.65 0.65 } } geometry Box { size 0.39370078740157477 0.6299212598425197 1.1811023622047243 } } ] }
Transform { translation 1.8503937007874016 -1.1811023622047243 -0.31496062992125984 children [ Shape { appearance Appearance { material Material { diffuseColor 0.65 0.65 0.65 } } geometry Box { size 0.39370078740157477 0.6299212598425197 1.1811023622047243 } } ] }
